<?xml version="1.0" encoding="UTF-8" standalone="no"?>
<svg width="166px" height="41px" viewBox="0 0 166 41" version="1.1" xmlns="http://www.w3.org/2000/svg" xmlns:xlink="http://www.w3.org/1999/xlink">
    <!-- Generator: Sketch 39.1 (31720) - http://www.bohemiancoding.com/sketch -->
    <title>app_store_icons_mac</title>
    <desc>Created with Sketch.</desc>
    <defs></defs>
    <g id="Page-1" stroke="none" stroke-width="1" fill="none" fill-rule="evenodd">
        <g id="app_store_icons" transform="translate(-702.000000, -30.000000)">
            <g id="app_store_icons_mac" transform="translate(702.609375, 30.316406)">
                <g id="Group">
                    <path d="M160.271,39.989 L4.729,39.989 C2.122,39.989 0,37.872 0,35.268 L0,4.727 C0,2.12 2.122,0 4.729,0 L160.271,0 C162.875,0 165,2.12 165,4.727 L165,35.268 C165.001,37.872 162.876,39.989 160.271,39.989 L160.271,39.989 L160.271,39.989 Z" id="Shape" fill="#A6A6A6"></path>
                    <path d="M164.105,35.268 C164.105,37.384 162.391,39.098 160.271,39.098 L4.729,39.098 C2.61,39.098 0.89,37.384 0.89,35.268 L0.89,4.725 C0.89,2.61 2.61,0.891 4.729,0.891 L160.271,0.891 C162.392,0.891 164.105,2.61 164.105,4.725 L164.105,35.268 L164.105,35.268 L164.105,35.268 Z" id="Shape" fill="#000000"></path>
                    <g transform="translate(12.000000, 6.000000)" id="Shape" fill="#FFFFFF">
                        <path d="M18.497,13.763 C18.467,10.54 21.192,8.971 21.316,8.899 C19.773,6.695 17.381,6.393 16.542,6.37 C14.532,6.164 12.584,7.548 11.561,7.548 C10.518,7.548 8.941,6.391 7.244,6.426 C5.059,6.459 3.014,7.697 1.892,9.621 C-0.422,13.544 1.304,19.311 3.52,22.48 C4.629,24.035 5.925,25.767 7.621,25.706 C9.281,25.64 9.9,24.671 11.904,24.671 C13.888,24.671 14.47,25.706 16.2,25.667 C17.98,25.64 19.103,24.108 20.173,22.54 C21.455,20.76 21.969,19.008 21.99,18.917 C21.948,18.902 18.532,17.627 18.497,13.763 L18.497,13.763 Z"></path>
                        <path d="M15.229,4.285 C16.121,3.191 16.731,1.705 16.562,0.196 C15.27,0.251 13.654,1.07 12.724,2.14 C11.901,3.081 11.166,4.626 11.356,6.078 C12.807,6.184 14.297,5.361 15.229,4.285 L15.229,4.285 Z"></path>
                    </g>
                    <g transform="translate(42.000000, 18.000000)" id="Shape" fill="#FFFFFF">
                        <path d="M13.653,13.496 L11.693,13.496 L11.431,8.232 C11.306,5.855 11.251,4.087 11.263,2.931 L11.207,2.931 C10.809,4.412 10.317,5.998 9.732,7.691 L7.772,13.384 L6.241,13.384 L4.449,7.784 C3.914,6.091 3.478,4.473 3.142,2.93 L3.104,2.93 C3.042,4.821 2.967,6.62 2.88,8.325 L2.581,13.495 L0.696,13.495 L1.536,0.913 L4.131,0.913 L5.942,6.364 C6.39,7.708 6.782,9.153 7.118,10.696 L7.174,10.696 C7.572,9.091 7.995,7.647 8.443,6.364 L10.329,0.913 L12.924,0.913 L13.653,13.496 L13.653,13.496 Z"></path>
                        <path d="M22.483,13.496 L20.672,13.496 L20.523,12.451 L20.467,12.451 C19.844,13.285 18.961,13.701 17.816,13.701 C16.957,13.701 16.267,13.428 15.744,12.881 C15.271,12.383 15.035,11.768 15.035,11.033 C15.035,9.926 15.498,9.078 16.426,8.494 C17.353,7.908 18.656,7.623 20.337,7.635 L20.337,7.467 C20.337,6.272 19.71,5.676 18.456,5.676 C17.561,5.676 16.773,5.899 16.09,6.348 L15.679,5.022 C16.524,4.499 17.562,4.239 18.792,4.239 C21.165,4.239 22.352,5.489 22.352,7.991 L22.352,11.333 C22.352,12.24 22.396,12.961 22.483,13.496 L22.483,13.496 Z M20.392,10.379 L20.392,8.979 C18.164,8.942 17.051,9.551 17.051,10.809 C17.051,11.282 17.18,11.637 17.441,11.873 C17.701,12.109 18.028,12.227 18.424,12.227 C18.87,12.227 19.281,12.088 19.659,11.807 C20.036,11.528 20.268,11.17 20.355,10.735 C20.379,10.635 20.392,10.516 20.392,10.379 L20.392,10.379 Z"></path>
                        <path d="M30.977,4.666 L30.585,6.197 C30.075,5.949 29.49,5.824 28.83,5.824 C27.946,5.824 27.247,6.119 26.73,6.711 C26.213,7.303 25.956,8.053 25.956,8.961 C25.956,9.918 26.227,10.678 26.768,11.238 C27.309,11.797 27.997,12.078 28.83,12.078 C29.452,12.078 30.062,11.953 30.66,11.705 L30.94,13.217 C30.28,13.528 29.447,13.684 28.439,13.684 C27.058,13.684 25.957,13.264 25.135,12.424 C24.313,11.584 23.903,10.461 23.903,9.055 C23.903,7.649 24.345,6.494 25.229,5.592 C26.112,4.69 27.301,4.238 28.794,4.238 C29.639,4.238 30.367,4.381 30.977,4.666 L30.977,4.666 Z"></path>
                        <path d="M45.872,13.496 L43.726,13.496 L42.549,9.801 L38.462,9.801 L37.342,13.496 L35.25,13.496 L39.301,0.914 L41.802,0.914 L45.872,13.496 L45.872,13.496 Z M42.195,8.252 L41.131,4.965 C41.019,4.629 40.807,3.84 40.496,2.595 L40.458,2.595 C40.333,3.131 40.134,3.92 39.861,4.965 L38.816,8.252 L42.195,8.252 L42.195,8.252 Z"></path>
                        <path d="M56.287,8.848 C56.287,10.393 55.871,11.612 55.037,12.508 C54.291,13.305 53.363,13.701 52.256,13.701 C51.061,13.701 50.203,13.273 49.68,12.414 L49.643,12.414 L49.643,17.193 L47.627,17.193 L47.627,7.41 C47.627,6.439 47.602,5.445 47.551,4.424 L49.324,4.424 L49.437,5.862 L49.474,5.862 C50.146,4.78 51.165,4.239 52.535,4.239 C53.605,4.239 54.498,4.661 55.215,5.509 C55.93,6.354 56.287,7.467 56.287,8.848 L56.287,8.848 Z M54.234,8.924 C54.234,8.039 54.035,7.313 53.636,6.738 C53.2,6.142 52.616,5.843 51.882,5.843 C51.384,5.843 50.933,6.007 50.528,6.337 C50.123,6.667 49.858,7.099 49.735,7.634 C49.673,7.884 49.641,8.089 49.641,8.251 L49.641,9.763 C49.641,10.423 49.842,10.98 50.248,11.433 C50.652,11.888 51.178,12.115 51.824,12.115 C52.584,12.115 53.174,11.822 53.597,11.238 C54.023,10.652 54.234,9.881 54.234,8.924 L54.234,8.924 Z"></path>
                        <path d="M66.723,8.848 C66.723,10.393 66.305,11.612 65.473,12.508 C64.725,13.305 63.799,13.701 62.69,13.701 C61.497,13.701 60.637,13.273 60.116,12.414 L60.077,12.414 L60.077,17.193 L58.061,17.193 L58.061,7.41 C58.061,6.439 58.036,5.445 57.987,4.424 L59.76,4.424 L59.871,5.862 L59.908,5.862 C60.58,4.78 61.601,4.239 62.97,4.239 C64.04,4.239 64.933,4.661 65.648,5.509 C66.365,6.354 66.723,7.467 66.723,8.848 L66.723,8.848 Z M64.67,8.924 C64.67,8.039 64.471,7.313 64.072,6.738 C63.636,6.142 63.051,5.843 62.316,5.843 C61.818,5.843 61.367,6.007 60.962,6.337 C60.557,6.667 60.294,7.099 60.169,7.634 C60.107,7.884 60.075,8.089 60.075,8.251 L60.075,9.763 C60.075,10.423 60.278,10.98 60.682,11.433 C61.086,11.888 61.612,12.115 62.26,12.115 C63.018,12.115 63.61,11.822 64.033,11.238 C64.457,10.652 64.67,9.881 64.67,8.924 L64.67,8.924 Z"></path>
                        <path d="M78.389,9.969 C78.389,11.039 78.016,11.91 77.272,12.582 C76.452,13.316 75.309,13.684 73.844,13.684 C72.49,13.684 71.405,13.422 70.584,12.899 L71.051,11.219 C71.934,11.754 72.906,12.022 73.963,12.022 C74.723,12.022 75.315,11.852 75.738,11.508 C76.161,11.164 76.373,10.707 76.373,10.133 C76.373,9.623 76.199,9.192 75.85,8.844 C75.502,8.494 74.924,8.17 74.114,7.871 C71.913,7.049 70.811,5.846 70.811,4.262 C70.811,3.227 71.196,2.38 71.967,1.72 C72.738,1.059 73.766,0.729 75.047,0.729 C76.193,0.729 77.145,0.928 77.904,1.327 L77.4,2.97 C76.689,2.584 75.886,2.391 74.992,2.391 C74.281,2.391 73.728,2.566 73.33,2.914 C72.994,3.224 72.826,3.605 72.826,4.052 C72.826,4.55 73.019,4.96 73.404,5.284 C73.74,5.583 74.349,5.907 75.234,6.255 C76.316,6.691 77.113,7.2 77.623,7.786 C78.135,8.369 78.389,9.098 78.389,9.969 L78.389,9.969 Z"></path>
                        <path d="M85.053,5.936 L82.83,5.936 L82.83,10.342 C82.83,11.461 83.223,12.022 84.008,12.022 C84.367,12.022 84.666,11.991 84.903,11.928 L84.96,13.459 C84.562,13.609 84.038,13.684 83.392,13.684 C82.595,13.684 81.974,13.442 81.525,12.955 C81.078,12.471 80.853,11.654 80.853,10.51 L80.853,5.936 L79.529,5.936 L79.529,4.424 L80.853,4.424 L80.853,2.763 L82.832,2.165 L82.832,4.423 L85.055,4.423 L85.055,5.936 L85.053,5.936 Z"></path>
                        <path d="M95.076,8.885 C95.076,10.28 94.678,11.424 93.883,12.321 C93.049,13.243 91.942,13.702 90.559,13.702 C89.227,13.702 88.166,13.261 87.377,12.378 C86.586,11.493 86.191,10.38 86.191,9.036 C86.191,7.63 86.597,6.479 87.414,5.583 C88.228,4.687 89.328,4.239 90.709,4.239 C92.041,4.239 93.109,4.68 93.92,5.563 C94.691,6.422 95.076,7.529 95.076,8.885 L95.076,8.885 Z M92.986,8.951 C92.986,8.115 92.804,7.396 92.445,6.799 C92.021,6.074 91.418,5.713 90.634,5.713 C89.823,5.713 89.208,6.074 88.784,6.799 C88.423,7.397 88.243,8.127 88.243,8.988 C88.243,9.824 88.423,10.543 88.784,11.14 C89.22,11.865 89.831,12.226 90.614,12.226 C91.385,12.226 91.989,11.859 92.425,11.122 C92.799,10.512 92.986,9.787 92.986,8.951 L92.986,8.951 Z"></path>
                        <path d="M101.629,6.197 C101.43,6.16 101.219,6.142 100.994,6.142 C100.285,6.142 99.736,6.41 99.351,6.943 C99.015,7.418 98.847,8.015 98.847,8.736 L98.847,13.496 L96.831,13.496 L96.849,7.281 C96.849,6.234 96.824,5.283 96.775,4.424 L98.529,4.424 L98.605,6.16 L98.66,6.16 C98.873,5.562 99.209,5.084 99.668,4.722 C100.117,4.4 100.602,4.238 101.125,4.238 C101.313,4.238 101.48,4.25 101.629,4.275 L101.629,6.197 L101.629,6.197 Z"></path>
                        <path d="M110.645,8.531 C110.645,8.892 110.62,9.197 110.571,9.445 L104.522,9.445 C104.547,10.341 104.84,11.025 105.401,11.5 C105.911,11.922 106.569,12.135 107.38,12.135 C108.275,12.135 109.091,11.99 109.825,11.705 L110.141,13.105 C109.284,13.478 108.268,13.664 107.098,13.664 C105.692,13.664 104.588,13.252 103.786,12.424 C102.984,11.596 102.581,10.485 102.581,9.092 C102.581,7.723 102.954,6.584 103.702,5.676 C104.485,4.705 105.544,4.219 106.876,4.219 C108.183,4.219 109.171,4.705 109.843,5.676 C110.377,6.447 110.645,7.398 110.645,8.531 L110.645,8.531 Z M108.723,8.008 C108.735,7.41 108.604,6.895 108.33,6.459 C107.982,5.898 107.447,5.619 106.725,5.619 C106.065,5.619 105.53,5.892 105.12,6.439 C104.784,6.877 104.585,7.398 104.522,8.007 L108.723,8.007 L108.723,8.008 Z"></path>
                    </g>
                    <g transform="translate(43.000000, 6.000000)" id="Shape" fill="#FFFFFF">
                        <path d="M5.96,4.009 C5.96,5.186 5.607,6.072 4.902,6.667 C4.249,7.216 3.321,7.491 2.119,7.491 C1.523,7.491 1.013,7.465 0.586,7.413 L0.586,0.982 C1.143,0.892 1.743,0.846 2.391,0.846 C3.536,0.846 4.399,1.095 4.981,1.593 C5.633,2.156 5.96,2.961 5.96,4.009 L5.96,4.009 Z M4.854,4.038 C4.854,3.275 4.652,2.69 4.248,2.282 C3.844,1.875 3.254,1.671 2.477,1.671 C2.147,1.671 1.866,1.693 1.633,1.739 L1.633,6.628 C1.762,6.648 1.998,6.657 2.341,6.657 C3.143,6.657 3.762,6.434 4.198,5.988 C4.634,5.542 4.854,4.892 4.854,4.038 L4.854,4.038 Z"></path>
                        <path d="M11.818,5.037 C11.818,5.762 11.611,6.356 11.197,6.822 C10.763,7.301 10.188,7.54 9.47,7.54 C8.778,7.54 8.227,7.311 7.816,6.851 C7.406,6.392 7.201,5.813 7.201,5.115 C7.201,4.385 7.412,3.786 7.836,3.321 C8.26,2.856 8.83,2.623 9.548,2.623 C10.24,2.623 10.796,2.852 11.217,3.311 C11.617,3.757 11.818,4.333 11.818,5.037 L11.818,5.037 Z M10.731,5.071 C10.731,4.636 10.637,4.263 10.45,3.952 C10.23,3.576 9.917,3.388 9.51,3.388 C9.089,3.388 8.769,3.576 8.549,3.952 C8.361,4.263 8.268,4.642 8.268,5.09 C8.268,5.525 8.362,5.898 8.549,6.209 C8.776,6.585 9.092,6.773 9.5,6.773 C9.9,6.773 10.214,6.582 10.44,6.199 C10.635,5.882 10.731,5.506 10.731,5.071 L10.731,5.071 Z"></path>
                        <path d="M19.675,2.719 L18.2,7.433 L17.24,7.433 L16.629,5.386 C16.474,4.875 16.348,4.367 16.25,3.863 L16.231,3.863 C16.14,4.381 16.014,4.888 15.852,5.386 L15.203,7.433 L14.232,7.433 L12.845,2.719 L13.922,2.719 L14.455,4.96 C14.584,5.49 14.69,5.995 14.775,6.473 L14.794,6.473 C14.872,6.079 15.001,5.577 15.183,4.97 L15.852,2.72 L16.706,2.72 L17.347,4.922 C17.502,5.459 17.628,5.976 17.725,6.474 L17.754,6.474 C17.825,5.989 17.932,5.472 18.074,4.922 L18.646,2.72 L19.675,2.72 L19.675,2.719 Z"></path>
                        <path d="M25.107,7.433 L24.06,7.433 L24.06,4.733 C24.06,3.901 23.744,3.485 23.11,3.485 C22.799,3.485 22.548,3.599 22.353,3.828 C22.16,4.057 22.062,4.327 22.062,4.636 L22.062,7.432 L21.014,7.432 L21.014,4.066 C21.014,3.652 21.001,3.203 20.976,2.717 L21.897,2.717 L21.946,3.454 L21.975,3.454 C22.097,3.225 22.279,3.036 22.518,2.885 C22.802,2.709 23.12,2.62 23.468,2.62 C23.908,2.62 24.274,2.762 24.565,3.047 C24.927,3.396 25.108,3.917 25.108,4.609 L25.108,7.433 L25.107,7.433 Z"></path>
                        <polygon points="27.998 7.433 26.95 7.433 26.95 0.556 27.998 0.556"></polygon>
                        <path d="M34.167,5.037 C34.167,5.762 33.96,6.356 33.546,6.822 C33.112,7.301 32.537,7.54 31.819,7.54 C31.127,7.54 30.576,7.311 30.165,6.851 C29.755,6.392 29.55,5.813 29.55,5.115 C29.55,4.385 29.761,3.786 30.185,3.321 C30.609,2.856 31.179,2.623 31.897,2.623 C32.589,2.623 33.145,2.852 33.566,3.311 C33.966,3.757 34.167,4.333 34.167,5.037 L34.167,5.037 Z M33.08,5.071 C33.08,4.636 32.986,4.263 32.799,3.952 C32.579,3.576 32.266,3.388 31.859,3.388 C31.438,3.388 31.118,3.576 30.898,3.952 C30.71,4.263 30.617,4.642 30.617,5.09 C30.617,5.525 30.711,5.898 30.898,6.209 C31.125,6.585 31.441,6.773 31.849,6.773 C32.249,6.773 32.563,6.582 32.789,6.199 C32.983,5.882 33.08,5.506 33.08,5.071 L33.08,5.071 Z"></path>
                        <path d="M39.239,7.433 L38.298,7.433 L38.221,6.89 L38.192,6.89 C37.869,7.323 37.41,7.54 36.815,7.54 C36.369,7.54 36.009,7.397 35.738,7.113 C35.492,6.855 35.37,6.534 35.37,6.153 C35.37,5.577 35.61,5.138 36.093,4.834 C36.574,4.53 37.252,4.381 38.125,4.388 L38.125,4.3 C38.125,3.679 37.799,3.369 37.147,3.369 C36.682,3.369 36.272,3.486 35.918,3.718 L35.705,3.03 C36.143,2.759 36.684,2.623 37.322,2.623 C38.555,2.623 39.172,3.273 39.172,4.573 L39.172,6.309 C39.171,6.78 39.194,7.155 39.239,7.433 L39.239,7.433 Z M38.152,5.813 L38.152,5.086 C36.995,5.066 36.417,5.383 36.417,6.036 C36.417,6.282 36.484,6.466 36.619,6.589 C36.754,6.712 36.925,6.773 37.13,6.773 C37.361,6.773 37.575,6.7 37.772,6.555 C37.969,6.41 38.089,6.224 38.134,5.997 C38.146,5.946 38.152,5.884 38.152,5.813 L38.152,5.813 Z"></path>
                        <path d="M45.195,7.433 L44.264,7.433 L44.215,6.676 L44.186,6.676 C43.889,7.252 43.384,7.54 42.673,7.54 C42.104,7.54 41.632,7.317 41.257,6.871 C40.882,6.425 40.695,5.846 40.695,5.135 C40.695,4.372 40.898,3.754 41.305,3.282 C41.7,2.842 42.185,2.622 42.76,2.622 C43.394,2.622 43.837,2.835 44.089,3.262 L44.109,3.262 L44.109,0.556 L45.157,0.556 L45.157,6.163 C45.157,6.622 45.17,7.045 45.195,7.433 L45.195,7.433 Z M44.109,5.445 L44.109,4.659 C44.109,4.523 44.099,4.413 44.08,4.329 C44.021,4.077 43.894,3.865 43.7,3.694 C43.505,3.523 43.271,3.437 42.999,3.437 C42.609,3.437 42.303,3.592 42.078,3.903 C41.854,4.214 41.742,4.611 41.742,5.096 C41.742,5.562 41.849,5.94 42.064,6.231 C42.291,6.541 42.596,6.696 42.979,6.696 C43.323,6.696 43.599,6.567 43.807,6.308 C44.009,6.069 44.109,5.781 44.109,5.445 L44.109,5.445 Z"></path>
                        <path d="M54.158,5.037 C54.158,5.762 53.951,6.356 53.537,6.822 C53.103,7.301 52.528,7.54 51.81,7.54 C51.118,7.54 50.567,7.311 50.156,6.851 C49.746,6.392 49.541,5.813 49.541,5.115 C49.541,4.385 49.752,3.786 50.176,3.321 C50.6,2.856 51.17,2.623 51.888,2.623 C52.58,2.623 53.136,2.852 53.557,3.311 C53.957,3.757 54.158,4.333 54.158,5.037 L54.158,5.037 Z M53.071,5.071 C53.071,4.636 52.977,4.263 52.79,3.952 C52.57,3.576 52.257,3.388 51.85,3.388 C51.429,3.388 51.109,3.576 50.889,3.952 C50.701,4.263 50.608,4.642 50.608,5.09 C50.608,5.525 50.702,5.898 50.889,6.209 C51.116,6.585 51.432,6.773 51.84,6.773 C52.24,6.773 52.554,6.582 52.78,6.199 C52.975,5.882 53.071,5.506 53.071,5.071 L53.071,5.071 Z"></path>
                        <path d="M59.793,7.433 L58.745,7.433 L58.745,4.733 C58.745,3.901 58.429,3.485 57.795,3.485 C57.484,3.485 57.233,3.599 57.038,3.828 C56.845,4.057 56.747,4.327 56.747,4.636 L56.747,7.432 L55.699,7.432 L55.699,4.066 C55.699,3.652 55.686,3.203 55.661,2.717 L56.582,2.717 L56.631,3.454 L56.66,3.454 C56.782,3.225 56.964,3.036 57.203,2.885 C57.487,2.709 57.805,2.62 58.153,2.62 C58.593,2.62 58.959,2.762 59.25,3.047 C59.612,3.396 59.793,3.917 59.793,4.609 L59.793,7.433 L59.793,7.433 Z"></path>
                        <path d="M66.846,3.504 L65.692,3.504 L65.692,5.794 C65.692,6.376 65.896,6.667 66.303,6.667 C66.491,6.667 66.646,6.651 66.769,6.618 L66.797,7.413 C66.59,7.491 66.318,7.53 65.983,7.53 C65.569,7.53 65.246,7.404 65.013,7.152 C64.78,6.9 64.663,6.476 64.663,5.881 L64.663,3.504 L63.975,3.504 L63.975,2.719 L64.663,2.719 L64.663,1.855 L65.691,1.545 L65.691,2.718 L66.845,2.718 L66.845,3.504 L66.846,3.504 Z"></path>
                        <path d="M72.442,7.433 L71.394,7.433 L71.394,4.753 C71.394,3.908 71.078,3.485 70.444,3.485 C69.959,3.485 69.626,3.73 69.445,4.22 C69.413,4.323 69.396,4.449 69.396,4.597 L69.396,7.432 L68.348,7.432 L68.348,0.556 L69.396,0.556 L69.396,3.397 L69.416,3.397 C69.746,2.88 70.218,2.622 70.832,2.622 C71.266,2.622 71.624,2.764 71.909,3.049 C72.264,3.404 72.442,3.932 72.442,4.63 L72.442,7.433 L72.442,7.433 Z"></path>
                        <path d="M77.875,4.853 C77.875,5.041 77.861,5.199 77.836,5.328 L74.693,5.328 C74.706,5.794 74.857,6.149 75.148,6.395 C75.414,6.615 75.756,6.725 76.176,6.725 C76.642,6.725 77.066,6.651 77.447,6.502 L77.611,7.23 C77.165,7.424 76.638,7.521 76.03,7.521 C75.3,7.521 74.725,7.306 74.308,6.876 C73.891,6.446 73.683,5.869 73.683,5.145 C73.683,4.434 73.876,3.842 74.265,3.37 C74.672,2.866 75.221,2.614 75.913,2.614 C76.592,2.614 77.106,2.866 77.455,3.37 C77.735,3.77 77.875,4.265 77.875,4.853 L77.875,4.853 Z M76.875,4.582 C76.882,4.271 76.813,4.003 76.672,3.777 C76.49,3.486 76.213,3.34 75.838,3.34 C75.495,3.34 75.217,3.482 75.003,3.767 C74.829,3.994 74.726,4.265 74.693,4.582 L76.875,4.582 L76.875,4.582 Z"></path>
                    </g>
                </g>
            </g>
        </g>
    </g>
</svg>