<svg xmlns="http://www.w3.org/2000/svg" width="48" height="48"><defs><linearGradient id="a" x1="50%" x2="50%" y1="0%" y2="100%"><stop offset=".023%" stop-color="#1988e0"/><stop offset="100%" stop-color="#1988e0" stop-opacity="0"/></linearGradient></defs><g fill="none" fill-rule="evenodd"><path fill="#1988e0" d="M35.314 9.686c6.248 6.249 6.248 16.38 0 22.628q-.314.313-.64.605L24 43 13.326 32.92q-.326-.293-.64-.606c-6.248-6.249-6.248-16.38 0-22.628s16.38-6.248 22.628 0"/><path fill="#2cc3ed" d="M12 19c6.627 0 12 5.373 12 12v12H12C5.373 43 0 37.627 0 31s5.373-12 12-12"/><path fill="#3147ff" d="M24 43V31l.004-.305C24.166 24.209 29.474 19 36 19c6.627 0 12 5.373 12 12s-5.373 12-12 12z"/><path fill="url(#a)" d="M36 19c1.382 0 2.71.234 3.945.664a15.97 15.97 0 0 1-5.27 13.255L24 43 13.326 32.92q-.326-.293-.64-.606a15.97 15.97 0 0 1-4.63-12.65A12 12 0 0 1 12 19c6.525 0 11.834 5.209 11.996 11.695L24 31l.004-.305C24.166 24.209 29.474 19 36 19" opacity=".653"/></g></svg>