<svg height="41" viewBox="0 0 136 41" width="136" xmlns="http://www.w3.org/2000/svg" xmlns:xlink="http://www.w3.org/1999/xlink"><linearGradient id="a" x1="91.501625%" x2="-38.332818%" y1="4.963903%" y2="71.903394%"><stop offset="0" stop-color="#00a0ff"/><stop offset=".0066" stop-color="#00a1ff"/><stop offset=".2601" stop-color="#00beff"/><stop offset=".5122" stop-color="#00d2ff"/><stop offset=".7604" stop-color="#00dfff"/><stop offset="1" stop-color="#00e3ff"/></linearGradient><linearGradient id="b" x1="107.584239%" x2="-130.468788%" y1="50%" y2="50%"><stop offset="0" stop-color="#ffe000"/><stop offset=".4087" stop-color="#ffbd00"/><stop offset=".7754" stop-color="#ffa500"/><stop offset="1" stop-color="#ff9c00"/></linearGradient><linearGradient id="c" x1="86.246779%" x2="-50.137233%" y1="17.846077%" y2="194.808468%"><stop offset="0" stop-color="#ff3a44"/><stop offset="1" stop-color="#c31162"/></linearGradient><linearGradient id="d" x1="-18.809781%" x2="42.09517%" y1="-54.157265%" y2="24.865742%"><stop offset="0" stop-color="#32a071"/><stop offset=".0685" stop-color="#2da771"/><stop offset=".4762" stop-color="#15cf74"/><stop offset=".8009" stop-color="#06e775"/><stop offset="1" stop-color="#00f076"/></linearGradient><g fill="none" fill-rule="evenodd" transform="translate(.937819 .316406)"><path d="m130 40h-125c-2.75 0-5-2.25-5-5v-30c0-2.75 2.25-5 5-5h125c2.75 0 5 2.25 5 5v30c0 2.75-2.25 5-5 5z" fill="#000"/><path d="m130 .8c2.316 0 4.2 1.884 4.2 4.2v30c0 2.316-1.884 4.2-4.2 4.2h-125c-2.316 0-4.2-1.884-4.2-4.2v-30c0-2.316 1.884-4.2 4.2-4.2zm0-.8h-125c-2.75 0-5 2.25-5 5v30c0 2.75 2.25 5 5 5h125c2.75 0 5-2.25 5-5v-30c0-2.75-2.25-5-5-5z" fill="#a6a6a6"/><g fill="#fff" stroke="#fff" stroke-width=".2" transform="translate(41 6)"><path d="m6.418 4.243c0 .838-.248 1.505-.745 2.003-.564.592-1.3.888-2.204.888-.866 0-1.603-.3-2.208-.9-.606-.601-.909-1.345-.909-2.233 0-.889.303-1.633.909-2.233.605-.601 1.342-.901 2.208-.901.43 0 .841.084 1.231.252.391.168.704.391.938.67l-.527.528c-.397-.475-.944-.712-1.643-.712-.632 0-1.178.222-1.639.666s-.691 1.021-.691 1.73.23 1.286.691 1.73 1.007.666 1.639.666c.67 0 1.229-.223 1.676-.67.29-.291.458-.696.503-1.215h-2.179v-.721h2.907c.03.156.043.307.043.452z"/><path d="m11.028 1.737h-2.732v1.902h2.464v.721h-2.464v1.902h2.732v.738h-3.503v-6h3.503z"/><path d="m14.279 7h-.771v-5.263h-1.676v-.737h4.123v.737h-1.676z"/><path d="m18.938 7v-6h.771v6z"/><path d="m23.128 7h-.771v-5.263h-1.676v-.737h4.123v.737h-1.676z"/><path d="m32.609 6.225c-.59.607-1.323.909-2.2.909s-1.61-.303-2.199-.909c-.59-.606-.884-1.348-.884-2.225s.294-1.619.884-2.225c.589-.607 1.322-.91 2.199-.91.872 0 1.604.305 2.196.914s.888 1.349.888 2.221c0 .877-.295 1.619-.884 2.225zm-3.83-.503c.444.45.987.674 1.63.674s1.187-.225 1.63-.674c.444-.45.667-1.024.667-1.722s-.223-1.272-.667-1.722c-.443-.45-.987-.674-1.63-.674s-1.186.225-1.63.674c-.443.45-.666 1.024-.666 1.722s.223 1.272.666 1.722z"/><path d="m34.575 7v-6h.938l2.916 4.667h.033l-.033-1.156v-3.511h.771v6h-.805l-3.051-4.894h-.033l.033 1.156v3.738z"/></g><path d="m68.136 21.752c-2.352 0-4.269 1.788-4.269 4.253 0 2.449 1.917 4.253 4.269 4.253s4.269-1.804 4.269-4.253c0-2.465-1.917-4.253-4.269-4.253zm0 6.83c-1.289 0-2.401-1.063-2.401-2.578 0-1.53 1.112-2.578 2.401-2.578s2.4 1.047 2.4 2.578c0 1.515-1.111 2.578-2.4 2.578zm-9.313-6.83c-2.352 0-4.269 1.788-4.269 4.253 0 2.449 1.917 4.253 4.269 4.253s4.269-1.804 4.269-4.253c0-2.465-1.917-4.253-4.269-4.253zm0 6.83c-1.289 0-2.401-1.063-2.401-2.578 0-1.53 1.112-2.578 2.401-2.578s2.4 1.047 2.4 2.578c0 1.515-1.112 2.578-2.4 2.578zm-11.079-5.525v1.804h4.318c-.129 1.015-.467 1.756-.983 2.272-.628.628-1.611 1.321-3.335 1.321-2.658 0-4.736-2.143-4.736-4.801s2.078-4.801 4.736-4.801c1.434 0 2.481.564 3.254 1.289l1.273-1.273c-1.079-1.031-2.513-1.82-4.527-1.82-3.641 0-6.702 2.964-6.702 6.605s3.061 6.605 6.702 6.605c1.966 0 3.448-.644 4.608-1.853 1.192-1.192 1.563-2.868 1.563-4.221 0-.419-.032-.806-.097-1.128zm45.308 1.401c-.354-.951-1.434-2.706-3.641-2.706-2.191 0-4.011 1.724-4.011 4.253 0 2.384 1.804 4.253 4.221 4.253 1.949 0 3.077-1.192 3.544-1.885l-1.45-.967c-.483.709-1.144 1.176-2.094 1.176-.951 0-1.627-.435-2.062-1.289l5.687-2.352zm-5.8 1.418c-.048-1.643 1.273-2.481 2.223-2.481.741 0 1.369.37 1.579.902zm-4.623 4.124h1.869v-12.501h-1.869zm-3.062-7.298h-.064c-.419-.499-1.224-.95-2.239-.95-2.127 0-4.076 1.869-4.076 4.269 0 2.384 1.949 4.237 4.076 4.237 1.015 0 1.82-.451 2.239-.967h.064v.612c0 1.627-.87 2.497-2.272 2.497-1.144 0-1.853-.822-2.143-1.514l-1.627.677c.467 1.128 1.708 2.513 3.77 2.513 2.191 0 4.044-1.289 4.044-4.43v-7.636h-1.772zm-2.142 5.88c-1.289 0-2.368-1.079-2.368-2.562 0-1.498 1.079-2.594 2.368-2.594 1.273 0 2.272 1.095 2.272 2.594-.001 1.483-.999 2.562-2.272 2.562zm24.381-11.083h-4.471v12.501h1.866v-4.736h2.606c2.068 0 4.101-1.497 4.101-3.882s-2.034-3.883-4.102-3.883zm.048 6.025h-2.654v-4.285h2.654c1.395 0 2.187 1.155 2.187 2.143 0 .968-.792 2.142-2.187 2.142zm11.532-1.795c-1.351 0-2.75.595-3.329 1.914l1.657.692c.354-.692 1.013-.917 1.705-.917.965 0 1.946.579 1.962 1.608v.129c-.338-.193-1.062-.483-1.946-.483-1.785 0-3.603.981-3.603 2.815 0 1.673 1.464 2.75 3.104 2.75 1.255 0 1.946-.563 2.38-1.222h.064v.965h1.801v-4.793c0-2.22-1.656-3.458-3.795-3.458zm-.225 6.851c-.611 0-1.464-.306-1.464-1.062 0-.965 1.062-1.335 1.978-1.335.82 0 1.206.177 1.705.418-.145 1.159-1.142 1.979-2.219 1.979zm10.582-6.578-2.139 5.42h-.064l-2.219-5.42h-2.01l3.329 7.575-1.898 4.214h1.946l5.131-11.789zm-16.807 7.998h1.866v-12.501h-1.866z" fill="#fff"/><g transform="translate(9 7)"><path d="m1.435.538c-.291.308-.463.786-.463 1.405v22.116c0 .62.172 1.097.463 1.405l.074.072 12.389-12.389v-.146-.146l-12.389-12.39z" fill="url(#a)"/><path d="m18.028 17.278-4.129-4.131v-.146-.146l4.13-4.13.093.053 4.893 2.78c1.398.794 1.398 2.093 0 2.888l-4.893 2.78z" fill="url(#b)"/><path d="m18.122 17.225-4.223-4.224-12.464 12.463c.461.488 1.221.548 2.078.061z" fill="url(#c)"/><path d="m18.122 8.777-14.608-8.3c-.857-.487-1.617-.426-2.078.061l12.463 12.463z" fill="url(#d)"/><g fill="#000" transform="translate(0 17)"><path d="m18.029.132-14.515 8.247c-.812.461-1.538.431-2.004.011l-.074.075.074.072c.466.42 1.192.451 2.004-.011l14.608-8.3z" opacity=".2"/><path d="m1.435 8.318c-.291-.308-.463-.786-.463-1.405v.146c0 .619.172 1.097.463 1.405l.074-.075z" opacity=".12"/></g><path d="m23.015 14.299-4.986 2.833.093.093 4.893-2.78c.699-.397 1.048-.92 1.048-1.443-.059.473-.415.937-1.048 1.297z" fill="#000" opacity=".12"/><path d="m3.514.623 19.501 11.08c.634.36.989.824 1.048 1.298 0-.523-.349-1.047-1.048-1.444l-19.501-11.08c-1.398-.794-2.541-.135-2.541 1.466v.146c0-1.6 1.143-2.26 2.541-1.466z" fill="#fff" opacity=".25"/></g></g></svg>