<svg xmlns="http://www.w3.org/2000/svg" viewBox="0 0 1600 460"><g fill="none" fill-rule="evenodd"><path fill="#FF2C69" d="M267.5 183c25.6812409 0 46.5 20.8187591 46.5 46.5S293.1812409 276 267.5 276 221 255.1812409 221 229.5s20.8187591-46.5 46.5-46.5zm17.937499 21h-35.8749991C248.1472703 204 247 205.1494543 247 206.5673781v49.1473197c0 .4670251.2538267.8970143.661881 1.1227788.4080544.2257644.9062945.2116797 1.300994-.0367778L267.5 245.1550715l18.537124 11.6481946c.3950881.2487025.8938852.2625531 1.3021157.0361572.4082306-.2263959.6613454-.6572407.6607603-1.1247255v-49.1473197C288 205.1494543 286.8527287 204 285.437499 204z"/><path fill="#EA8D61" d="M907 384.1554278l17.4528695 13.1139224c2.7669183 2.124602 6.5270894-.7326213 5.46289-4.1026796l-6.6689826-21.1727575 17.2400296-12.6743497c2.8378649-2.0513398 1.4189324-6.6668544-2.0574521-6.6668544h-21.1420939l-6.8818226-22.1251653c-1.0641993-3.3700583-5.6757299-3.3700583-6.7399292 0l-6.9527692 22.1251653h-21.1420939c-3.4763845 0-4.895317 4.6155146-2.0574521 6.6668544l17.2400296 12.6743497-6.6689826 21.1727575c-1.0641994 3.3700583 2.6959717 6.1540195 5.46289 4.1026796L907 384.1554278z"/><path fill="#1988E0" d="M723.125 224.0487805C723.125 208.5826829 710.508125 196 695 196c-13.80375 0-25.25625 9.9853659-27.61875 23.0785366C657.441875 221.4065854 650 230.27 650 240.8780488c0 12.3751219 10.0805664 21.6079494 22.5 22.4390244h50.625c9.9527995-.831075 16.875-7.5507317 16.875-16.8292683 0-9.2785366-7.57125-16.8292683-16.875-16.8292683v-5.6097561z"/><path d="M434 50h93v93h-93z"/><path fill="#8399BD" d="M482 71c12.1502645 0 22 9.8388156 22 21.9756098C504 109.7804878 489.7647059 124 482 124c-7.7647059 0-22-14.2195122-22-31.0243902C460 80.8388156 469.8497355 71 482 71zm0 5c-9.3888407 0-17 7.584025-17 16.9393939C465 105.4328485 475.8930769 119 482 119c6.1069231 0 17-13.5671515 17-26.0606061C499 83.584025 491.3888407 76 482 76zm14.6996112 18c.4159714 0 .8293429.0207992 1.234915.0649976.3731618 3.5144102-.8622595 7.0091722-3.361213 9.5082058-2.4989535 2.4990336-5.9936036 3.7344944-9.5079012 3.3613207-.3502146-3.2993926.7168989-6.5923255 2.9357201-9.0591387C490.2199533 95.4085722 493.3817889 94 496.6996112 94zm-29.3992224 0c3.3178223 0 6.4796579 1.4085722 8.6984791 3.8753854s3.2859347 5.7597461 2.9357201 9.0591387c-3.5142976.3731737-7.0089477-.8622871-9.5079012-3.3613207-2.4989535-2.4990336-3.7343748-5.9937956-3.361213-9.5082058.4029722-.0441984.8189436-.0649976 1.234915-.0649976z" opacity=".9"/><path d="M860 50h93v93h-93z"/><path fill="#8583BD" d="M930 71v52h-5.3333333v-18.2H914V86.6c0-8.6156421 7.163444-15.6 16-15.6zm-5 7c-2.075 1.2207792-5 4.2597403-5 9.012987V100h5V78zm-26.4 24.1105263V123h-5.2v-20.8894737c-6.0525533-1.2275102-10.3992439-6.5090912-10.4-12.6368421V74h5.2v18.0526316h5.2V74h5.2v18.0526316h5.2V74h5.2v15.4736842c-.0007561 6.1277509-4.3474467 11.4093319-10.4 12.6368421z"/><path fill="#BD8383" d="M1334.2222222 68c.5522848 0 1 .4477153 1 1l.000214 8.9340131c2.9372527.4928116 5.6499214 1.6479251 7.9791943 3.3065287l6.3189042-6.3179869c.3905243-.3905242 1.0236893-.3905242 1.4142136 0l3.1426968 3.1426968c.3905242.3905243.3905242 1.0236893 0 1.4142136l-6.3179869 6.3189042c1.6586036 2.3292729 2.8137171 5.0419416 3.3065287 7.9791943L1360 93.7777778c.5522847 0 1 .4477152 1 1v4.4444444c0 .5522848-.4477153 1-1 1l-8.9340131.000214c-.4928116 2.9372527-1.6479251 5.6499214-3.3065287 7.9791943l6.3179869 6.3189042c.3905242.3905243.3905242 1.0236893 0 1.4142136l-3.1426968 3.1426968c-.3905243.3905242-1.0236893.3905242-1.4142136 0l-6.3189042-6.3179869c-2.3292729 1.6586036-5.0419416 2.8137171-7.9791943 3.3065287L1335.2222222 125c0 .5522847-.4477152 1-1 1h-4.4444444c-.5522848 0-1-.4477153-1-1l-.000214-8.9340131c-2.9372527-.4928116-5.6499214-1.6479251-7.9791943-3.3065287l-6.3189042 6.3179869c-.3905243.3905242-1.0236893.3905242-1.4142136 0l-3.1426968-3.1426968c-.3905242-.3905243-.3905242-1.0236893 0-1.4142136l6.3179869-6.3189042c-1.6586036-2.3292729-2.8137171-5.0419416-3.3065287-7.9791943L1304 100.2222222c-.5522847 0-1-.4477152-1-1v-4.4444444c0-.5522848.4477153-1 1-1l8.9340131-.000214c.4928116-2.9372527 1.6479251-5.6499214 3.3065287-7.9791943l-6.3179869-6.3189042c-.3905242-.3905243-.3905242-1.0236893 0-1.4142136l3.1426968-3.1426968c.3905243-.3905242 1.0236893-.3905242 1.4142136 0l6.3189042 6.3179869c2.3292729-1.6586036 5.0419416-2.8137171 7.9791943-3.3065287L1328.7777778 69c0-.5522847.4477152-1 1-1h4.4444444zM1332 84.1111111c-7.1183368 0-12.8888889 5.7705521-12.8888889 12.8888889S1324.8816632 109.8888889 1332 109.8888889 1344.8888889 104.1183368 1344.8888889 97 1339.1183368 84.1111111 1332 84.1111111z" opacity=".9"/><path d="M221 50h93v93h-93z"/><path fill="#FAE25D" fill-rule="nonzero" d="M268 89c4.418278 0 8 3.581722 8 8s-3.581722 8-8 8-8-3.581722-8-8 3.581722-8 8-8zm-.5 4c-1.9329966 0-3.5 1.5670034-3.5 3.5s1.5670034 3.5 3.5 3.5 3.5-1.5670034 3.5-3.5-1.5670034-3.5-3.5-3.5z"/><path d="M860 183h93v93h-93z"/><path fill="#FAE25D" fill-rule="nonzero" d="M907 222c4.418278 0 8 3.581722 8 8s-3.581722 8-8 8-8-3.581722-8-8 3.581722-8 8-8zm-.5 4c-1.9329966 0-3.5 1.5670034-3.5 3.5s1.5670034 3.5 3.5 3.5 3.5-1.5670034 3.5-3.5-1.5670034-3.5-3.5-3.5z"/><g transform="translate(647 50)"><path d="M0 0h93v93H0z"/><ellipse cx="46.5" cy="47" fill="#FAEEC9" rx="7.5" ry="8"/></g><path d="M1073 50h93v93h-93z"/><path fill="#F88A46" d="M1119.333 86.00075571l10.3329514 10.3329514L1119.333 106.6666585l-10.3329514-10.3329514z"/><path fill="#28CF9B" d="M514.8500436 391.3295997l-13.2179643-13.179088c4.2646774-5.433148 6.5786951-12.1424301 6.5701058-19.0494192C508.2021851 341.9244334 494.2777517 328 477.1010925 328 459.9244334 328 446 341.9244334 446 359.1010925c0 17.1766592 13.9244334 31.1010926 31.1010925 31.1010926 6.9069891.0085893 13.6162712-2.3054284 19.0494192-6.5701058l13.179088 13.2179643C510.059568 397.5860224 511.0532318 398 512.0898217 398c1.0365898 0 2.0302536-.4139776 2.7602219-1.1499564C515.5860224 396.1200753 516 395.1264115 516 394.0898217c0-1.0365899-.4139776-2.0302537-1.1499564-2.760222zM454 359.5c0-12.9786916 10.5213084-23.5 23.5-23.5s23.5 10.5213084 23.5 23.5-10.5213084 23.5-23.5 23.5-23.5-10.5213084-23.5-23.5z"/><path fill="#FFF" d="M1352.5 370c10.7695526 0 19.5 8.581209 19.5 19.1666667C1372 391.2837582 1370.2837582 393 1368.1666667 393h-31.3333334c-2.0509324 0-3.7256767-1.6106527-3.8283454-3.6360705L1333 389.1666667C1333 378.581209 1341.7304474 370 1352.5 370zm0-27c6.3512746 0 11.5 5.1487254 11.5 11.5s-5.1487254 11.5-11.5 11.5-11.5-5.1487254-11.5-11.5 5.1487254-11.5 11.5-11.5z" opacity=".7"/><path fill="#33A3F3" d="M1321 367c14.9116882 0 27 12.1442762 27 27.125 0 2.1401034-1.7348966 3.875-3.875 3.875h-46.25c-2.07322517 0-3.76617325-1.6281598-3.86995787-3.675593L1294 394.125c0-14.9807238 12.0883118-27.125 27-27.125zm.5-39c8.5604136 0 15.5 6.9395864 15.5 15.5s-6.9395864 15.5-15.5 15.5-15.5-6.9395864-15.5-15.5 6.9395864-15.5 15.5-15.5z"/><path d="M221 316h93v93h-93z"/><path fill="#7642FA" d="M267.5 371l10.5-16h-21z"/><path d="M1073 316h93v93h-93z"/><path fill="#FF2C69" d="M1127.375 365.125h-5.25v5.25c0 1.4497475-1.1752525 2.625-2.625 2.625s-2.625-1.1752525-2.625-2.625v-5.25h-5.25c-1.4497475 0-2.625-1.1752525-2.625-2.625s1.1752525-2.625 2.625-2.625h5.25v-5.25c0-1.4497475 1.1752525-2.625 2.625-2.625s2.625 1.1752525 2.625 2.625v5.25h5.25c1.4497475 0 2.625 1.1752525 2.625 2.625s-1.1752525 2.625-2.625 2.625z"/><path d="M434 183h93v93h-93z"/><path fill="#F88A46" d="M488.375 232.125h-5.25v5.25c0 1.4497475-1.1752525 2.625-2.625 2.625s-2.625-1.1752525-2.625-2.625v-5.25h-5.25c-1.4497475 0-2.625-1.1752525-2.625-2.625s1.1752525-2.625 2.625-2.625h5.25v-5.25c0-1.4497475 1.1752525-2.625 2.625-2.625s2.625 1.1752525 2.625 2.625v5.25h5.25c1.4497475 0 2.625 1.1752525 2.625 2.625s-1.1752525 2.625-2.625 2.625z"/><g><path d="M1286 183h93v93h-93z"/><path fill="#28CF9B" fill-rule="nonzero" d="M1333 222c4.418278 0 8 3.3578644 8 7.5s-3.581722 7.5-8 7.5-8-3.3578644-8-7.5 3.581722-7.5 8-7.5zm-.5 4c-1.9329966 0-3.5 1.5670034-3.5 3.5s1.5670034 3.5 3.5 3.5 3.5-1.5670034 3.5-3.5-1.5670034-3.5-3.5-3.5z"/></g><g><path fill="#7642FA" d="M1151.1111111 237.7543193h-16.7222222l2.8388889-15.5086386h13.8833333c2.147774 0 3.8888889-1.7358635 3.8888889-3.8771596 0-2.1412962-1.7411149-3.8771597-3.8888889-3.8771597h-12.4833333l2.6833333-14.7719783c.2143092-1.0476863-.0148745-2.1371011-.6333592-3.0106451-.6184847-.873544-1.5713582-1.4536596-2.6333075-1.6031748-1.0561834-.2508498-2.1694605-.050076-3.0705713.5537619-.9011108.6038379-1.5079961 1.5557517-1.6738731 2.625509l-2.9166667 16.2065273h-15.0888889l2.6833334-14.7719783c.2143092-1.0476863-.0148745-2.1371011-.6333592-3.0106451-.6184848-.873544-1.5713583-1.4536596-2.6333075-1.6031748-1.0561834-.2508498-2.1694605-.050076-3.0705713.5537619-.9011108.6038379-1.5079961 1.5557517-1.6738731 2.625509L1107.05 214.4913614h-18.1611111c-2.147774 0-3.8888889 1.7358635-3.8888889 3.8771597 0 2.1412961 1.7411149 3.8771596 3.8888889 3.8771596h16.7222222l-2.8388889 15.5086386h-13.8833333c-2.147774 0-3.8888889 1.7358635-3.8888889 3.8771596 0 2.1412962 1.7411149 3.8771597 3.8888889 3.8771597h12.4833333l-2.6833333 14.7719783c-.2143092 1.0476863.0148745 2.1371011.6333592 3.0106451.6184847.873544 1.5713582 1.4536596 2.6333075 1.6031748 1.0561834.2508498 2.1694605.050076 3.0705713-.5537619.9011108-.6038379 1.5079961-1.5557517 1.6738731-2.625509l2.9166667-16.2065273h15.0888889l-2.6833334 14.7719783c-.2143092 1.0476863.0148745 2.1371011.6333592 3.0106451.6184848.873544 1.5713583 1.4536596 2.6333075 1.6031748 1.0561834.2508498 2.1694605.050076 3.0705713-.5537619.9011108-.6038379 1.5079961-1.5557517 1.6738731-2.625509L1132.95 245.5086386h18.1611111c2.147774 0 3.8888889-1.7358635 3.8888889-3.8771597 0-2.1412961-1.7411149-3.8771596-3.8888889-3.8771596zM1111 238l2.8565217-16H1129l-2.8565217 16H1111z"/></g><g><path d="M8 50h93v93H8z"/><path fill="#8B83BD" d="M78 120H44.4762755C35.8181683 119.2925925 29.0018235 112.0617209 29 103.2391825c0-8.7741053 6.7685757-16.0630311 15.5200402-16.7134139C45.1657404 77.7809497 52.4441488 71.0119733 61.2142581 71c8.7701093-.0119415 16.0669549 6.7371626 16.7365067 15.4801882L78 120zm-5.0349195-33.1983879C72.4971088 80.7005268 67.4056367 75.9913339 61.2866364 76c-6.1190003.00869-11.1970947 4.7323055-11.6477593 10.8346937l-.3289781 4.4752053-4.4752053.3289781C38.7323055 92.0895417 34.00869 97.1676361 34 103.2866364c-.0086661 6.1190003 4.7005268 11.2104724 10.8016121 11.6784441l.4521152.0330816L73 115l-.0018379-27.7462727-.0330816-.4521152z"/></g><g><path d="M8 316h93v93H8z"/><path fill="#BD8383" d="M78 339v35.7788448c-.0010485 4.6265603-3.1376407 8.6756634-7.6475071 9.8723527-4.5098663 1.1966892-9.2685828-.7574004-11.6025021-4.7643789-2.3339193-4.0069786-1.6611362-9.0678048 1.6403514-12.3390935 3.3014876-3.2712886 8.4085353-3.9374245 12.4517885-1.6241444v-21.8123172h-23.210412v30.6675813c-.0010486 4.6265603-3.1376408 8.6756634-7.6475071 9.8723527-4.5098664 1.1966892-9.2685829-.7574004-11.6025022-4.7643789-2.3339193-4.0069786-1.6611362-9.0678048 1.6403515-12.3390935 3.3014876-3.2712886 8.4085352-3.9374245 12.4517884-1.6241444V339H78zm-39 41c2.7614237 0 5-2.2385763 5-5s-2.2385763-5-5-5-5 2.2385763-5 5 2.2385763 5 5 5zm29 0c2.7614237 0 5-2.2385763 5-5s-2.2385763-5-5-5-5 2.2385763-5 5 2.2385763 5 5 5z" opacity=".9"/></g><g><path d="M1499 184h93v93h-93z"/><path fill="#8399BD" d="M1546 205c14.3598 0 26 11.6402 26 26s-11.6402 26-26 26-26-11.6402-26-26 11.6402-26 26-26zm1.2630174 30L1538 250.4007865c3.7596072 1.5096174 7.8888357 1.9628507 11.9065421 1.3068887-.7095674-4.7884038.016574-9.6717107 2.0934579-14.0785226L1547.2630174 235zm8.346469 5c-1.3317094 3.1543445-1.849751 6.5930112-1.5065187 10 3.1150605-1.4133658 5.8291373-3.5810232 7.8970323-6.3071392L1555.6094864 240zm-18.2348936-11c-2.8675013 3.9254824-6.8125285 6.9688093-11.3745928 8.774744 1.3782439 3.6635076 3.7930402 6.8641225 6.9602606 9.225256L1542 231.6211604 1537.3745928 229zm29.5231775.0025687l-.6619963.3082456c-2.8448185 1.4068076-5.3224438 3.4588247-7.235774 5.9928076L1565.3941662 239c1.328081-3.1551649 1.8450331-6.5932517 1.5036041-10v.0025687zM1525 230.9727646c0 .6834533.0333938 1.3617678.0975785 2.0272354 3.1206586-1.4055288 5.8381033-3.5737433 7.9024215-6.3052415L1526.6020681 223c-1.0609107 2.5237797-1.6056542 5.2347501-1.6020681 7.9727646zM1559.0382674 214L1550 229.3766529 1554.624654 232c2.8670112-3.9271958 6.8124161-6.9719552 11.375346-8.7786151-1.2810751-3.3982097-3.455682-6.4024192-6.3025566-8.7069529l-.659176-.514432zm-13.3224016-4c-1.2360794 0-2.4454615.1025199-3.6228071.2947114.7107739 4.7884545-.0152825 9.6721726-2.0930587 14.0786709L1544.738749 227 1554 211.5990513c-2.6223438-1.058913-5.4391889-1.6026306-8.2841342-1.5990513zm-8.8186274 2l-.4902088.2260468c-2.9117447 1.4165437-5.4492475 3.4994815-7.4070296 6.0801438L1535.3906804 222c1.3313162-3.1543721 1.8493631-6.5929842 1.506558-10z" opacity=".9"/></g><g transform="translate(8 183)"><path d="M0 0h93v93H0z"/><circle cx="46.5" cy="46.5" r="7.5" fill="#35A2F5"/></g><g transform="translate(647 316)"><path d="M0 0h93v93H0z"/><circle cx="46.5" cy="46.5" r="7.5" fill="#35A2F5"/></g><g><path d="M1499 51h93v93h-93z"/><path fill="#D5E9FF" d="M1545.5 90l10.5 15h-21z"/></g><g><path d="M1499 317h93v93h-93z"/><path fill="#FAE25D" d="M1545.333 353.00075571l10.3329514 10.3329514L1545.333 373.6666585l-10.3329514-10.3329514z"/></g></g></svg>