<svg viewBox="0 0 1600 460" xmlns="http://www.w3.org/2000/svg"><g fill="none" fill-rule="evenodd"><path d="m267.5 183c25.6812409 0 46.5 20.8187591 46.5 46.5s-20.8187591 46.5-46.5 46.5-46.5-20.8187591-46.5-46.5 20.8187591-46.5 46.5-46.5zm17.937499 21h-35.8749991c-1.4152296 0-2.5624999 1.1494543-2.5624999 2.5673781v49.1473197c0 .4670251.2538267.8970143.661881 1.1227788.4080544.2257644.9062945.2116797 1.300994-.0367778l18.537125-11.6456273 18.537124 11.6481946c.3950881.2487025.8938852.2625531 1.3021157.0361572.4082306-.2263959.6613454-.6572407.6607603-1.1247255v-49.1473197c0-1.4179238-1.1472713-2.5673781-2.562501-2.5673781z" fill="#ff2c69"/><path d="m907 384.1554278 17.4528695 13.1139224c2.7669183 2.124602 6.5270894-.7326213 5.46289-4.1026796l-6.6689826-21.1727575 17.2400296-12.6743497c2.8378649-2.0513398 1.4189324-6.6668544-2.0574521-6.6668544h-21.1420939l-6.8818226-22.1251653c-1.0641993-3.3700583-5.6757299-3.3700583-6.7399292 0l-6.9527692 22.1251653h-21.1420939c-3.4763845 0-4.895317 4.6155146-2.0574521 6.6668544l17.2400296 12.6743497-6.6689826 21.1727575c-1.0641994 3.3700583 2.6959717 6.1540195 5.46289 4.1026796z" fill="#ea8d61"/><path d="m723.125 224.0487805c0-15.4660976-12.616875-28.0487805-28.125-28.0487805-13.80375 0-25.25625 9.9853659-27.61875 23.0785366-9.939375 2.3280488-17.38125 11.1914634-17.38125 21.7995122 0 12.3751219 10.0805664 21.6079494 22.5 22.4390244h50.625c9.9527995-.831075 16.875-7.5507317 16.875-16.8292683s-7.57125-16.8292683-16.875-16.8292683z" fill="#1988e0"/><path d="m434 50h93v93h-93z"/><path d="m482 71c12.1502645 0 22 9.8388156 22 21.9756098 0 16.804878-14.2352941 31.0243902-22 31.0243902s-22-14.2195122-22-31.0243902c0-12.1367942 9.8497355-21.9756098 22-21.9756098zm0 5c-9.3888407 0-17 7.584025-17 16.9393939 0 12.4934546 10.8930769 26.0606061 17 26.0606061s17-13.5671515 17-26.0606061c0-9.3553689-7.6111593-16.9393939-17-16.9393939zm14.6996112 18c.4159714 0 .8293429.0207992 1.234915.0649976.3731618 3.5144102-.8622595 7.0091722-3.361213 9.5082058s-5.9936036 3.7344944-9.5079012 3.3613207c-.3502146-3.2993926.7168989-6.5923255 2.9357201-9.0591387s5.3806568-3.8753854 8.6984791-3.8753854zm-29.3992224 0c3.3178223 0 6.4796579 1.4085722 8.6984791 3.8753854s3.2859347 5.7597461 2.9357201 9.0591387c-3.5142976.3731737-7.0089477-.8622871-9.5079012-3.3613207s-3.7343748-5.9937956-3.361213-9.5082058c.4029722-.0441984.8189436-.0649976 1.234915-.0649976z" fill="#8399bd" opacity=".9"/><path d="m860 50h93v93h-93z"/><path d="m930 71v52h-5.3333333v-18.2h-10.6666667v-18.2c0-8.6156421 7.163444-15.6 16-15.6zm-5 7c-2.075 1.2207792-5 4.2597403-5 9.012987v12.987013h5zm-26.4 24.1105263v20.8894737h-5.2v-20.8894737c-6.0525533-1.2275102-10.3992439-6.5090912-10.4-12.6368421v-15.4736842h5.2v18.0526316h5.2v-18.0526316h5.2v18.0526316h5.2v-18.0526316h5.2v15.4736842c-.0007561 6.1277509-4.3474467 11.4093319-10.4 12.6368421z" fill="#8583bd"/><path d="m1334.2222222 68c.5522848 0 1 .4477153 1 1l.000214 8.9340131c2.9372527.4928116 5.6499214 1.6479251 7.9791943 3.3065287l6.3189042-6.3179869c.3905243-.3905242 1.0236893-.3905242 1.4142136 0l3.1426968 3.1426968c.3905242.3905243.3905242 1.0236893 0 1.4142136l-6.3179869 6.3189042c1.6586036 2.3292729 2.8137171 5.0419416 3.3065287 7.9791943l8.9340131.000214c.5522847 0 1 .4477152 1 1v4.4444444c0 .5522848-.4477153 1-1 1l-8.9340131.000214c-.4928116 2.9372527-1.6479251 5.6499214-3.3065287 7.9791943l6.3179869 6.3189042c.3905242.3905243.3905242 1.0236893 0 1.4142136l-3.1426968 3.1426968c-.3905243.3905242-1.0236893.3905242-1.4142136 0l-6.3189042-6.3179869c-2.3292729 1.6586036-5.0419416 2.8137171-7.9791943 3.3065287l-.000214 8.9340131c0 .5522847-.4477152 1-1 1h-4.4444444c-.5522848 0-1-.4477153-1-1l-.000214-8.9340131c-2.9372527-.4928116-5.6499214-1.6479251-7.9791943-3.3065287l-6.3189042 6.3179869c-.3905243.3905242-1.0236893.3905242-1.4142136 0l-3.1426968-3.1426968c-.3905242-.3905243-.3905242-1.0236893 0-1.4142136l6.3179869-6.3189042c-1.6586036-2.3292729-2.8137171-5.0419416-3.3065287-7.9791943l-8.9340131-.000214c-.5522847 0-1-.4477152-1-1v-4.4444444c0-.5522848.4477153-1 1-1l8.9340131-.000214c.4928116-2.9372527 1.6479251-5.6499214 3.3065287-7.9791943l-6.3179869-6.3189042c-.3905242-.3905243-.3905242-1.0236893 0-1.4142136l3.1426968-3.1426968c.3905243-.3905242 1.0236893-.3905242 1.4142136 0l6.3189042 6.3179869c2.3292729-1.6586036 5.0419416-2.8137171 7.9791943-3.3065287l.000214-8.9340131c0-.5522847.4477152-1 1-1zm-2.2222222 16.1111111c-7.1183368 0-12.8888889 5.7705521-12.8888889 12.8888889s5.7705521 12.8888889 12.8888889 12.8888889 12.8888889-5.7705521 12.8888889-12.8888889-5.7705521-12.8888889-12.8888889-12.8888889z" fill="#bd8383" opacity=".9"/><path d="m221 50h93v93h-93z"/><path d="m268 89c4.418278 0 8 3.581722 8 8s-3.581722 8-8 8-8-3.581722-8-8 3.581722-8 8-8zm-.5 4c-1.9329966 0-3.5 1.5670034-3.5 3.5s1.5670034 3.5 3.5 3.5 3.5-1.5670034 3.5-3.5-1.5670034-3.5-3.5-3.5z" fill="#fae25d" fill-rule="nonzero"/><path d="m860 183h93v93h-93z"/><path d="m907 222c4.418278 0 8 3.581722 8 8s-3.581722 8-8 8-8-3.581722-8-8 3.581722-8 8-8zm-.5 4c-1.9329966 0-3.5 1.5670034-3.5 3.5s1.5670034 3.5 3.5 3.5 3.5-1.5670034 3.5-3.5-1.5670034-3.5-3.5-3.5z" fill="#fae25d" fill-rule="nonzero"/><g transform="translate(647 50)"><path d="m0 0h93v93h-93z"/><ellipse cx="46.5" cy="47" fill="#faeec9" rx="7.5" ry="8"/></g><path d="m1073 50h93v93h-93z"/><path d="m1119.333 86.00075571 10.3329514 10.3329514-10.3329514 10.33295139-10.3329514-10.3329514z" fill="#f88a46"/><path d="m514.8500436 391.3295997-13.2179643-13.179088c4.2646774-5.433148 6.5786951-12.1424301 6.5701058-19.0494192 0-17.1766591-13.9244334-31.1010925-31.1010926-31.1010925-17.1766591 0-31.1010925 13.9244334-31.1010925 31.1010925 0 17.1766592 13.9244334 31.1010926 31.1010925 31.1010926 6.9069891.0085893 13.6162712-2.3054284 19.0494192-6.5701058l13.179088 13.2179643c.7299683.7359788 1.7236321 1.1499564 2.760222 1.1499564 1.0365898 0 2.0302536-.4139776 2.7602219-1.1499564.7359788-.7299683 1.1499564-1.7236321 1.1499564-2.7602219 0-1.0365899-.4139776-2.0302537-1.1499564-2.760222zm-60.8500436-31.8295997c0-12.9786916 10.5213084-23.5 23.5-23.5s23.5 10.5213084 23.5 23.5-10.5213084 23.5-23.5 23.5-23.5-10.5213084-23.5-23.5z" fill="#28cf9b"/><path d="m1352.5 370c10.7695526 0 19.5 8.581209 19.5 19.1666667 0 2.1170915-1.7162418 3.8333333-3.8333333 3.8333333h-31.3333334c-2.0509324 0-3.7256767-1.6106527-3.8283454-3.6360705l-.0049879-.1972628c0-10.5854577 8.7304474-19.1666667 19.5-19.1666667zm0-27c6.3512746 0 11.5 5.1487254 11.5 11.5s-5.1487254 11.5-11.5 11.5-11.5-5.1487254-11.5-11.5 5.1487254-11.5 11.5-11.5z" fill="#fff" opacity=".7"/><path d="m1321 367c14.9116882 0 27 12.1442762 27 27.125 0 2.1401034-1.7348966 3.875-3.875 3.875h-46.25c-2.07322517 0-3.76617325-1.6281598-3.86995787-3.675593l-.00504213-.199407c0-14.9807238 12.0883118-27.125 27-27.125zm.5-39c8.5604136 0 15.5 6.9395864 15.5 15.5s-6.9395864 15.5-15.5 15.5-15.5-6.9395864-15.5-15.5 6.9395864-15.5 15.5-15.5z" fill="#33a3f3"/><path d="m221 316h93v93h-93z"/><path d="m267.5 371 10.5-16h-21z" fill="#7642fa"/><path d="m1073 316h93v93h-93z"/><path d="m1127.375 365.125h-5.25v5.25c0 1.4497475-1.1752525 2.625-2.625 2.625s-2.625-1.1752525-2.625-2.625v-5.25h-5.25c-1.4497475 0-2.625-1.1752525-2.625-2.625s1.1752525-2.625 2.625-2.625h5.25v-5.25c0-1.4497475 1.1752525-2.625 2.625-2.625s2.625 1.1752525 2.625 2.625v5.25h5.25c1.4497475 0 2.625 1.1752525 2.625 2.625s-1.1752525 2.625-2.625 2.625z" fill="#ff2c69"/><path d="m434 183h93v93h-93z"/><path d="m488.375 232.125h-5.25v5.25c0 1.4497475-1.1752525 2.625-2.625 2.625s-2.625-1.1752525-2.625-2.625v-5.25h-5.25c-1.4497475 0-2.625-1.1752525-2.625-2.625s1.1752525-2.625 2.625-2.625h5.25v-5.25c0-1.4497475 1.1752525-2.625 2.625-2.625s2.625 1.1752525 2.625 2.625v5.25h5.25c1.4497475 0 2.625 1.1752525 2.625 2.625s-1.1752525 2.625-2.625 2.625z" fill="#f88a46"/><path d="m1286 183h93v93h-93z"/><path d="m1333 222c4.418278 0 8 3.3578644 8 7.5s-3.581722 7.5-8 7.5-8-3.3578644-8-7.5 3.581722-7.5 8-7.5zm-.5 4c-1.9329966 0-3.5 1.5670034-3.5 3.5s1.5670034 3.5 3.5 3.5 3.5-1.5670034 3.5-3.5-1.5670034-3.5-3.5-3.5z" fill="#28cf9b" fill-rule="nonzero"/><path d="m1151.1111111 237.7543193h-16.7222222l2.8388889-15.5086386h13.8833333c2.147774 0 3.8888889-1.7358635 3.8888889-3.8771596 0-2.1412962-1.7411149-3.8771597-3.8888889-3.8771597h-12.4833333l2.6833333-14.7719783c.2143092-1.0476863-.0148745-2.1371011-.6333592-3.0106451s-1.5713582-1.4536596-2.6333075-1.6031748c-1.0561834-.2508498-2.1694605-.050076-3.0705713.5537619s-1.5079961 1.5557517-1.6738731 2.625509l-2.9166667 16.2065273h-15.0888889l2.6833334-14.7719783c.2143092-1.0476863-.0148745-2.1371011-.6333592-3.0106451-.6184848-.873544-1.5713583-1.4536596-2.6333075-1.6031748-1.0561834-.2508498-2.1694605-.050076-3.0705713.5537619s-1.5079961 1.5557517-1.6738731 2.625509l-2.9166667 16.2065273h-18.1611111c-2.147774 0-3.8888889 1.7358635-3.8888889 3.8771597 0 2.1412961 1.7411149 3.8771596 3.8888889 3.8771596h16.7222222l-2.8388889 15.5086386h-13.8833333c-2.147774 0-3.8888889 1.7358635-3.8888889 3.8771596 0 2.1412962 1.7411149 3.8771597 3.8888889 3.8771597h12.4833333l-2.6833333 14.7719783c-.2143092 1.0476863.0148745 2.1371011.6333592 3.0106451s1.5713582 1.4536596 2.6333075 1.6031748c1.0561834.2508498 2.1694605.050076 3.0705713-.5537619s1.5079961-1.5557517 1.6738731-2.625509l2.9166667-16.2065273h15.0888889l-2.6833334 14.7719783c-.2143092 1.0476863.0148745 2.1371011.6333592 3.0106451.6184848.873544 1.5713583 1.4536596 2.6333075 1.6031748 1.0561834.2508498 2.1694605.050076 3.0705713-.5537619s1.5079961-1.5557517 1.6738731-2.625509l2.9166667-16.2065273h18.1611111c2.147774 0 3.8888889-1.7358635 3.8888889-3.8771597 0-2.1412961-1.7411149-3.8771596-3.8888889-3.8771596zm-40.1111111.2456807 2.8565217-16h15.1434783l-2.8565217 16z" fill="#7642fa"/><path d="m8 50h93v93h-93z"/><path d="m78 120h-33.5237245c-8.6581072-.7074075-15.474452-7.9382791-15.4762755-16.7608175 0-8.7741053 6.7685757-16.0630311 15.5200402-16.7134139.6457002-8.7448189 7.9241086-15.5137953 16.6942179-15.5257686 8.7701093-.0119415 16.0669549 6.7371626 16.7365067 15.4801882zm-5.0349195-33.1983879c-.4679717-6.1010853-5.5594438-10.8102782-11.6784441-10.8016121-6.1190003.00869-11.1970947 4.7323055-11.6477593 10.8346937l-.3289781 4.4752053-4.4752053.3289781c-6.1023882.4506646-10.8260037 5.528759-10.8346937 11.6477593-.0086661 6.1190003 4.7005268 11.2104724 10.8016121 11.6784441l.4521152.0330816 27.7462727.0018379-.0018379-27.7462727z" fill="#8b83bd"/><path d="m8 316h93v93h-93z"/><path d="m78 339v35.7788448c-.0010485 4.6265603-3.1376407 8.6756634-7.6475071 9.8723527-4.5098663 1.1966892-9.2685828-.7574004-11.6025021-4.7643789-2.3339193-4.0069786-1.6611362-9.0678048 1.6403514-12.3390935 3.3014876-3.2712886 8.4085353-3.9374245 12.4517885-1.6241444v-21.8123172h-23.210412v30.6675813c-.0010486 4.6265603-3.1376408 8.6756634-7.6475071 9.8723527-4.5098664 1.1966892-9.2685829-.7574004-11.6025022-4.7643789-2.3339193-4.0069786-1.6611362-9.0678048 1.6403515-12.3390935 3.3014876-3.2712886 8.4085352-3.9374245 12.4517884-1.6241444v-26.9235807zm-39 41c2.7614237 0 5-2.2385763 5-5s-2.2385763-5-5-5-5 2.2385763-5 5 2.2385763 5 5 5zm29 0c2.7614237 0 5-2.2385763 5-5s-2.2385763-5-5-5-5 2.2385763-5 5 2.2385763 5 5 5z" fill="#bd8383" opacity=".9"/><path d="m1499 184h93v93h-93z"/><path d="m1546 205c14.3598 0 26 11.6402 26 26s-11.6402 26-26 26-26-11.6402-26-26 11.6402-26 26-26zm1.2630174 30-9.2630174 15.4007865c3.7596072 1.5096174 7.8888357 1.9628507 11.9065421 1.3068887-.7095674-4.7884038.016574-9.6717107 2.0934579-14.0785226zm8.346469 5c-1.3317094 3.1543445-1.849751 6.5930112-1.5065187 10 3.1150605-1.4133658 5.8291373-3.5810232 7.8970323-6.3071392zm-18.2348936-11c-2.8675013 3.9254824-6.8125285 6.9688093-11.3745928 8.774744 1.3782439 3.6635076 3.7930402 6.8641225 6.9602606 9.225256l9.0397394-15.3788396zm29.5231775.0025687-.6619963.3082456c-2.8448185 1.4068076-5.3224438 3.4588247-7.235774 5.9928076l6.3941662 3.6963781c1.328081-3.1551649 1.8450331-6.5932517 1.5036041-10zm-41.8977703 1.9701959c0 .6834533.0333938 1.3617678.0975785 2.0272354 3.1206586-1.4055288 5.8381033-3.5737433 7.9024215-6.3052415l-6.3979319-3.6947585c-1.0609107 2.5237797-1.6056542 5.2347501-1.6020681 7.9727646zm34.0382674-16.9727646-9.0382674 15.3766529 4.624654 2.6233471c2.8670112-3.9271958 6.8124161-6.9719552 11.375346-8.7786151-1.2810751-3.3982097-3.455682-6.4024192-6.3025566-8.7069529zm-13.3224016-4c-1.2360794 0-2.4454615.1025199-3.6228071.2947114.7107739 4.7884545-.0152825 9.6721726-2.0930587 14.0786709l4.738749 2.6266177 9.261251-15.4009487c-2.6223438-1.058913-5.4391889-1.6026306-8.2841342-1.5990513zm-8.8186274 2-.4902088.2260468c-2.9117447 1.4165437-5.4492475 3.4994815-7.4070296 6.0801438l6.3906804 3.6938094c1.3313162-3.1543721 1.8493631-6.5929842 1.506558-10z" fill="#8399bd" opacity=".9"/><g transform="translate(8 183)"><path d="m0 0h93v93h-93z"/><circle cx="46.5" cy="46.5" fill="#35a2f5" r="7.5"/></g><g transform="translate(647 316)"><path d="m0 0h93v93h-93z"/><circle cx="46.5" cy="46.5" fill="#35a2f5" r="7.5"/></g><path d="m1499 51h93v93h-93z"/><path d="m1545.5 90 10.5 15h-21z" fill="#d5e9ff"/><path d="m1499 317h93v93h-93z"/><path d="m1545.333 353.00075571 10.3329514 10.3329514-10.3329514 10.33295139-10.3329514-10.3329514z" fill="#fae25d"/></g></svg>